<?xml version="1.0" encoding="utf-8"?>
<!-- Generator: Adobe Illustrator 24.1.2, SVG Export Plug-In . SVG Version: 6.00 Build 0)  -->
<svg version="1.0" id="icons" xmlns="http://www.w3.org/2000/svg" xmlns:xlink="http://www.w3.org/1999/xlink" x="0px" y="0px"
	 viewBox="0 0 42 42" style="enable-background:new 0 0 42 42;" xml:space="preserve">
<g id="alert-triangle">
	<g>
		<path d="M19.91,25.37l0.06,1.09h2.07l0.06-1.09l0.41-7.88l0.08-1.5h-3.16l0.08,1.5L19.91,25.37z M20.99,28
			c-0.96,0-1.74,0.78-1.74,1.74s0.78,1.74,1.74,1.74s1.74-0.78,1.74-1.74S21.96,28,20.99,28z M36.53,29.82L24.95,8.51
			c-0.79-1.45-2.3-2.35-3.95-2.35s-3.17,0.9-3.95,2.35L5.47,29.82c-0.77,1.41-0.73,3.07,0.09,4.45s2.27,2.2,3.87,2.2h23.16
			c1.6,0,3.05-0.82,3.87-2.2S37.3,31.23,36.53,29.82z M33.87,32.74c-0.13,0.22-0.52,0.73-1.29,0.73H9.42
			c-0.77,0-1.16-0.51-1.29-0.73C8,32.52,7.73,31.93,8.1,31.25L19.68,9.94c0.38-0.71,1.05-0.78,1.32-0.78s0.93,0.08,1.32,0.78
			L33.9,31.25C34.27,31.93,34,32.52,33.87,32.74z"/>
	</g>
</g>
</svg>
