<svg width="22" height="21" viewBox="0 0 22 21" fill="none" xmlns="http://www.w3.org/2000/svg">
<path fill-rule="evenodd" clip-rule="evenodd" d="M2 5.25C2 3.59315 3.34315 2.25 5 2.25H13C14.6569 2.25 16 3.59315 16 5.25V6.45359L13.8016 8.65201C13.6192 8.40798 13.3281 8.25 13 8.25H5C4.44772 8.25 4 8.69771 4 9.25C4 9.80229 4.44772 10.25 5 10.25H12.2036L10.1863 12.2673C10.1259 12.2559 10.0637 12.25 10 12.25H5C4.44772 12.25 4 12.6977 4 13.25C4 13.8023 4.44772 14.25 5 14.25H8.99963L8.77382 15.2017C8.4788 16.4452 9.39711 17.5813 10.5793 17.6606C10.7744 17.6738 10.9766 17.6581 11.1818 17.6094L12.6256 17.2669C12.9862 17.1813 13.316 16.9972 13.5781 16.7351L16 14.3132V15.25C16 16.9069 14.6569 18.25 13 18.25H5C3.34315 18.25 2 16.9069 2 15.25V5.25ZM18 12.3129V15.25C18 18.0114 15.7614 20.25 13 20.25H5C2.23858 20.25 0 18.0114 0 15.25V5.25C0 2.48858 2.23858 0.25 5 0.25H13C15.5773 0.25 17.6991 2.19997 17.9706 4.70505C18.693 4.41201 19.5519 4.55842 20.1377 5.14428L21.239 6.24551C22.02 7.02656 22.02 8.29289 21.239 9.07394L18 12.3129ZM10.7201 15.6634L12.1636 15.3209L19.8247 7.65972L18.7235 6.55849L17.7225 7.55955C17.7174 7.56483 17.7123 7.57006 17.7071 7.57524L11.0627 14.2197L10.7201 15.6634ZM4 5.25C4 4.69772 4.44772 4.25 5 4.25H13C13.5523 4.25 14 4.69772 14 5.25C14 5.80228 13.5523 6.25 13 6.25H5C4.44772 6.25 4 5.80228 4 5.25Z" fill="#524F4D"/>
</svg>
