<svg width="22" height="21" viewBox="0 0 22 21" fill="none" xmlns="http://www.w3.org/2000/svg">
<path fill-rule="evenodd" clip-rule="evenodd" d="M14.3214 5.35593L13.6509 3.97286C13.4861 3.63275 13.2617 3.31196 12.9749 3.02513C11.608 1.65829 9.39196 1.65829 8.02513 3.02513C7.75596 3.29429 7.54195 3.59323 7.38045 3.90978L6.81257 5.0229L5.56316 5.00056C4.64307 4.98412 3.72477 5.32548 3.02513 6.02513C1.65829 7.39196 1.65829 9.60804 3.02513 10.9749C3.2439 11.1936 3.48206 11.3757 3.73299 11.5228L4.72183 12.1022V13.2483V18.5H8.72183H12.7218H16.7218V13.5329V12.2292L17.9145 11.703C18.2968 11.5344 18.6569 11.2929 18.9749 10.9749C20.3417 9.60804 20.3417 7.39196 18.9749 6.02513C18.1221 5.17235 16.9392 4.84964 15.8304 5.06408L14.3214 5.35593ZM12.7218 18.5C12.1695 18.5 11.7218 18.0523 11.7218 17.5V13.5C11.7218 12.9477 12.1695 12.5 12.7218 12.5C13.2741 12.5 13.7218 12.9477 13.7218 13.5V17.5C13.7218 18.0523 13.2741 18.5 12.7218 18.5ZM8.72183 18.5C8.16954 18.5 7.72183 18.0523 7.72183 17.5V13.5C7.72183 12.9477 8.16954 12.5 8.72183 12.5C9.27411 12.5 9.72183 12.9477 9.72183 13.5V17.5C9.72183 18.0523 9.27411 18.5 8.72183 18.5ZM18.7218 13.5329C19.3268 13.266 19.8935 12.8847 20.3891 12.3891C22.537 10.2412 22.537 6.7588 20.3891 4.61091C19.0469 3.26877 17.1837 2.76529 15.4506 3.10047C15.1897 2.56222 14.8359 2.0577 14.3891 1.61091C12.2412 -0.536971 8.7588 -0.536971 6.61091 1.61091C6.19179 2.03003 5.85446 2.49997 5.5989 3.00088C4.15855 2.97514 2.71001 3.51182 1.61091 4.61091C-0.536971 6.7588 -0.536971 10.2412 1.61091 12.3891C1.95125 12.7294 2.32509 13.0158 2.72183 13.2483V18.5C2.72183 19.6046 3.61726 20.5 4.72183 20.5H16.7218C17.8264 20.5 18.7218 19.6046 18.7218 18.5V13.5329Z" fill="#524F4D"/>
</svg>
